<svg width="64" height="64" viewBox="0 0 64 64" fill="none" xmlns="http://www.w3.org/2000/svg">
<path fill-rule="evenodd" clip-rule="evenodd" d="M0 32C0 14.3269 14.3269 0 32 0C49.6731 0 64 14.3269 64 32C64 37.8221 62.4451 43.2811 59.728 47.9843H55.75C55.0326 47.9843 54.355 48.2013 53.7735 48.6163C53.7499 48.632 53.7265 48.6479 53.7034 48.6641L53.7526 48.5506L53.7632 48.524C53.9304 48.106 54 47.6785 54 47.2656V46C54 45.224 53.7201 44.4697 53.133 43.8826C52.5459 43.2955 51.7916 43.0156 51.0156 43.0156H49.486C50.169 41.96 50.7531 40.8409 51.2383 39.6582C52.2799 37.054 52.8008 34.3848 52.8008 31.6504C52.8008 27.8743 51.8568 24.3913 49.9688 21.2012C48.1458 18.0111 45.6393 15.5046 42.4492 13.6816C39.2591 11.7936 35.776 10.8496 32 10.8496C28.224 10.8496 24.7409 11.7936 21.5508 13.6816C18.3607 15.5046 15.8216 18.0111 13.9336 21.2012C12.1107 24.3913 11.1992 27.8743 11.1992 31.6504C11.1992 35.4264 12.1107 38.9095 13.9336 42.0996C15.8216 45.2897 18.3607 47.8288 21.5508 49.7168C24.7409 51.5397 28.224 52.4512 32 52.4512C34.0552 52.4512 36.0552 52.157 38 51.5685V52.5156C38 53.4346 38.3362 54.266 38.9353 54.9316L39.0057 55.0099L39.0839 55.0803C39.7496 55.6794 40.581 56.0156 41.5 56.0156H48.25C48.9138 56.0156 49.5665 55.8442 50.1537 55.4772L50.2258 55.4322L50.2689 55.3999L50.2474 55.4493L50.2368 55.4759C50.0696 55.8939 50 56.3214 50 56.7343V58C50 58.1479 50.0102 58.295 50.0307 58.4403C44.8963 61.9484 38.6877 64 32 64C14.3269 64 0 49.6731 0 32ZM58.472 49.9843C56.6731 52.6271 54.4888 54.9864 52 56.9815V56.7343C52 56.5468 52.0312 56.375 52.0938 56.2187L54.3906 50.9218C54.4844 50.6406 54.6562 50.4218 54.9062 50.2656C55.1562 50.0781 55.4375 49.9843 55.75 49.9843H58.472ZM40 50.8525V52.5156C40 52.9218 40.1406 53.2812 40.4219 53.5937C40.7344 53.875 41.0938 54.0156 41.5 54.0156H48.25C48.5625 54.0156 48.8438 53.9375 49.0938 53.7812C49.3438 53.5937 49.5156 53.3593 49.6094 53.0781L51.9062 47.7812C51.9688 47.625 52 47.4531 52 47.2656V46C52 45.7187 51.9062 45.4843 51.7188 45.2968C51.5312 45.1093 51.2969 45.0156 51.0156 45.0156H48.0103C47.6126 45.4911 47.1912 45.9514 46.7461 46.3965C44.8155 48.3271 42.5668 49.8125 40 50.8525ZM25.457 22.959L21.0625 27.3535L23.3086 29.5996L25.457 27.3535L27.7031 29.5996L29.9492 27.3535L25.457 22.959ZM32 43.0762C34.4089 43.0762 36.5573 42.4251 38.4453 41.123C40.3984 39.7559 41.7982 37.998 42.6445 35.8496H21.3555C22.2018 37.998 23.569 39.7559 25.457 41.123C27.4102 42.4251 29.5911 43.0762 32 43.0762ZM40.6914 29.5996L42.9375 27.3535L38.543 22.959L34.0508 27.3535L36.2969 29.5996L38.543 27.3535L40.6914 29.5996Z" fill="#386FE5"/>
<path d="M62.5 49.9844C62.9062 49.9844 63.25 50.1406 63.5312 50.4531C63.8438 50.7344 64 51.0781 64 51.4844V58C64 58.4062 63.8594 58.7656 63.5781 59.0781L58.6094 64L57.8125 63.2031C57.5938 62.9844 57.4844 62.7188 57.4844 62.4062V62.1719L58.1875 58.9844H52.9844C52.7031 58.9844 52.4688 58.8906 52.2812 58.7031C52.0938 58.5156 52 58.2812 52 58V56.7344C52 56.5469 52.0312 56.375 52.0938 56.2188L54.3906 50.9219C54.4844 50.6406 54.6562 50.4219 54.9062 50.2656C55.1562 50.0781 55.4375 49.9844 55.75 49.9844H62.5ZM52 46V47.2656C52 47.4531 51.9688 47.625 51.9062 47.7812L49.6094 53.0781C49.5156 53.3594 49.3438 53.5938 49.0938 53.7812C48.8438 53.9375 48.5625 54.0156 48.25 54.0156H41.5C41.0938 54.0156 40.7344 53.875 40.4219 53.5938C40.1406 53.2812 40 52.9219 40 52.5156V46C40 45.5938 40.1406 45.2344 40.4219 44.9219L45.3906 40L46.1875 40.7969C46.4062 41.0156 46.5156 41.2812 46.5156 41.5938V41.8281L45.8125 45.0156H51.0156C51.2969 45.0156 51.5312 45.1094 51.7188 45.2969C51.9062 45.4844 52 45.7188 52 46Z" fill="#81A3EF"/>
</svg>
